<?xml version="1.0" encoding="utf-8"?>
<!-- Generator: Adobe Illustrator 24.1.1, SVG Export Plug-In . SVG Version: 6.00 Build 0)  -->
<svg version="1.1" id="Layer_1" xmlns="http://www.w3.org/2000/svg" xmlns:xlink="http://www.w3.org/1999/xlink" x="0px" y="0px"
	 viewBox="0 0 512 512" style="enable-background:new 0 0 512 512;" xml:space="preserve">
<g>
	<path d="M255,435.5c8.3,0,15-6.7,15-15c0-8.3-6.7-15-15-15c-40.1,0-77.7-15.6-106.1-43.9c-28.3-28.3-43.9-66-43.9-106.1
		c0-40.1,15.6-77.7,43.9-106.1l21.2,21.2V107h-63.6l21.2,21.2c-34,34-52.7,79.2-52.7,127.3s18.7,93.3,52.7,127.3
		C161.7,416.8,206.9,435.5,255,435.5L255,435.5z" fill="#696969"/>
	<path d="M420,240.6c-8.3,0-15,6.7-15,15c0,8.3,6.7,15,15,15s15-6.7,15-15C435,247.3,428.3,240.6,420,240.6z" fill="#696969"/>
	<path d="M422.5,192.4c0-8.3-6.7-15-15-15c-8.3,0-15,6.7-15,15c0,8.3,6.7,15,15,15C415.8,207.4,422.5,200.8,422.5,192.4z" fill="#696969"/>
	<path d="M371.7,123.8c-8.3,0-15,6.7-15,15c0,8.3,6.7,15,15,15s15-6.7,15-15C386.7,130.5,380,123.8,371.7,123.8z" fill="#696969"/>
	<path d="M407.5,333.7c8.3,0,15-6.7,15-15c0-8.3-6.7-15-15-15s-15,6.7-15,15C392.5,327,399.2,333.7,407.5,333.7z" fill="#696969"/>
	<path d="M371.7,357.2c-8.3,0-15,6.7-15,15c0,8.3,6.7,15,15,15s15-6.7,15-15C386.7,363.9,380,357.2,371.7,357.2z" fill="#696969"/>
	<path d="M318.2,423c8.3,0,15-6.7,15-15c0-8.3-6.7-15-15-15c-8.3,0-15,6.7-15,15C303.2,416.3,309.9,423,318.2,423z" fill="#696969"/>
	<path d="M255,335.5c44.1,0,80-35.9,80-80c0-33.5-20.7-62.2-50-74.1v34.2c12.1,9.1,20,23.6,20,39.9c0,27.6-22.4,50-50,50
		c-27.6,0-50-22.4-50-50c0-16.3,7.9-30.8,20-39.9v-34.2c-29.3,11.9-50,40.6-50,74.1C175,299.6,210.9,335.5,255,335.5L255,335.5z" fill="#696969"/>
	<path d="M240,155.5h30v90h-30V155.5z" fill="#696969"/>
	<path d="M304.2,97.3c-3.1,7.6,0.5,16.4,8.2,19.6c1.9,0.8,3.8,1.1,5.7,1.1c5.9,0,11.5-3.5,13.9-9.3c3.2-7.7-0.5-16.4-8.2-19.6
		C316.1,85.9,307.4,89.6,304.2,97.3L304.2,97.3z" fill="#696969"/>
	<path d="M254.9,105.5c8.3,0,15-6.7,15-15c0-8.3-6.7-15-15-15c-8.3,0-15,6.7-15,15C239.9,98.8,246.6,105.5,254.9,105.5z" fill="#696969"/>
</g>
</svg>
